<svg width="890" height="503" viewBox="0 0 890 503" fill="none" xmlns="http://www.w3.org/2000/svg">
<g clip-path="url(#clip0_94_2353)">
<path d="M52.1575 300.269L54.4435 301.98C50.6815 311.011 50.4596 320.897 48.3178 330.283C43.3906 351.843 36.5991 373.082 31.5942 394.631C27.5659 411.959 25.3465 430.021 19.9865 446.872C25.4464 446.105 30.6843 447.794 36.022 448.038C58.0501 449.06 80.9327 447.916 102.694 447.927C174.494 447.927 246.415 446.649 318.125 447.294C335.182 447.449 357.044 446.383 373.412 447.994C376.353 448.282 382.212 449.626 384.554 451.281C389.126 454.525 396.372 469.254 402.098 474.253C425.669 494.858 468.904 493.625 492.73 474.097C499.71 468.377 511.872 449.149 518.853 448.038C606.499 447.771 694.655 448.038 781.747 448.027C811.51 448.027 841.539 448.816 871.135 446.861L852.181 361.94L854.478 360.23C853.546 360.13 852.037 360.552 851.36 360.041C850.849 359.641 848.186 349.422 847.675 347.589C839.574 318.597 835.013 286.607 828.266 256.915C825.093 242.975 819.977 224.68 817.114 210.284C816.403 206.718 813.851 208.74 818.967 204.708L814.539 204.141C817.824 203.453 817.857 200.698 814.539 201.909L812.231 192.967L814.539 190.268L811.376 190.123L810.011 182.959L812.32 179.149L809.013 180.259C806.815 163.753 801.167 147.902 798.126 131.596C797.505 128.252 797.582 124.22 797.793 120.754C797.827 120.265 791.901 118.333 799.014 113.623L794.586 114.723L796.783 110.279L793.987 110.39C793.643 105.414 791.457 100.849 790.369 96.1057C790.092 94.8838 791.102 93.5842 791.046 93.0288C791.013 92.7067 787.706 92.4623 789.004 87.6637L791.257 86.3974L787.906 85.842L791.235 82.5207C785.975 83.1983 786.308 77.6554 786.163 73.5899L800.501 72.468L890.011 461.301H525.478L523.158 462.323C491.997 516.518 402.664 516.874 373.234 461.256C369.184 461.923 365.211 460.223 361.272 460.223C280.14 460.268 198.153 461.356 117.132 461.323L-0.0107422 461.279C12.7067 403.317 28.1541 345.967 41.8592 288.262C49.0835 257.837 56.8405 227.379 63.8096 196.932C73.3421 155.3 81.3876 113.234 89.877 71.3795L104.281 70.2798C102.273 77.9665 102.35 86.1419 100.664 93.8619C89.9103 142.837 79.5788 192.889 68.304 241.32C66.5062 249.028 56.8294 296.826 54.843 299.147C54.2548 299.836 53.0674 300.214 52.1464 300.236L52.1575 300.269Z" fill="#858585"/>
<path d="M79.9667 307.567L56.6402 416.38L48.8389 421.334C52.2235 400.84 56.0521 380.313 60.2025 359.963C65.4626 334.204 71.7769 308.445 77.3699 282.73C79.2786 273.966 81.143 267.401 82.9518 259.703C83.318 258.148 83.6399 248.828 84.339 248.051L85.3599 246.207C85.5264 240.553 88.3562 234.288 89.244 229.256C92.4511 210.973 96.6126 189.057 100.008 171.795C100.219 170.706 100.83 168.974 101.007 166.397L115.356 96.5721L115.911 94.9282L116.521 92.5288L117.098 90.796L117.609 89.1965L118.186 87.8635L118.663 86.4417C121.537 75.567 118.097 64.3147 130.393 59.2051L130.914 63.0595L117.464 126.83" fill="#858585"/>
<path d="M113.192 143.637L113.214 147.524L109.863 148.08L112.16 149.868C111.616 153.034 111.217 156.244 110.64 159.399C102.916 202.098 93.3278 247.873 83.7842 290.25" fill="#858585"/>
<path d="M116.543 128.63V130.874C113.236 130.585 115.733 141.015 114.279 142.515" fill="#858585"/>
<path d="M139.86 49.1934L65.291 412.17L71.1172 413.369L145.686 50.3927L139.86 49.1934Z" fill="#858585"/>
<path d="M443.879 411.338C429.652 394.498 413.483 378.169 393.975 367.439C314.929 323.996 227.815 353.177 148.958 378.825C127.108 385.934 106.345 395.342 83.2402 399.119L153.386 46.6868L154.729 44.6984C183.737 33.7794 211.491 18.7503 241.443 10.4194C312.676 -9.38604 398.402 0.42226 443.024 65.0815C444.034 102.026 445.088 139.36 445.055 176.461C445 238.498 444.711 300.914 445.055 362.974C445.144 379.225 444.056 395.153 443.89 411.338H443.879ZM385.063 62.56C374.155 56.6394 364.5 51.5631 352.038 49.5193C300.98 41.1328 250.221 47.331 203.446 69.0248C200.294 70.491 196.909 72.1128 194.08 74.1122C192.759 75.0453 191.35 74.1455 192.004 76.9892C217.695 67.7474 243.141 56.8283 270.384 52.7072C308.115 47.0089 346.112 50.1413 381.712 63.1487C382.755 63.5264 385.33 64.6149 385.075 62.56H385.063ZM409.488 84.7536C407.735 79.0441 402.475 78.1555 397.559 76.1561C335.958 51.1077 260.752 54.2846 200.105 81.2324C196.81 82.6986 189.741 85.5089 189.752 89.7522C251.319 63.493 316.05 54.8066 380.869 75.0786C385.086 76.4004 407.58 86.1865 409.488 84.7425V84.7536ZM408.101 96.117C350.762 67.5585 283.324 69.0026 223.032 87.5306C215.164 89.9521 195.711 96.5502 189.619 100.771C188.276 101.704 186.911 100.827 187.543 103.648C189.308 105.014 224.087 91.2851 229.702 89.7633C279.051 76.3338 333.728 73.7345 382.589 90.041C389.558 92.3625 393.875 96.0281 399.845 98.3164C403.751 99.8048 411.597 102.437 408.101 96.1392V96.117ZM408.368 114.745C410.698 112.568 397.048 105.381 395.628 104.737C342.938 80.9325 263.793 86.8197 210.271 105.848C202.403 108.647 189.73 112.79 185.313 119.744L228.592 105.303C281.704 90.4186 339.121 89.3301 391.511 107.758C394.252 108.724 407.158 115.889 408.368 114.756V114.745ZM408.368 130.307C411.564 126.131 394.552 118.722 391.711 117.555C335.514 94.4952 246.836 101.049 192.848 128.408C189.341 130.185 184.103 132.118 183.093 135.85C184.991 137.361 208.573 126.486 212.823 125.075C268.32 106.658 324.528 101.46 380.913 119.466L408.357 130.307H408.368ZM409.488 145.847C408.024 141.371 402.686 139.46 398.624 137.294C342.161 107.114 243.762 116.733 187.887 145.658C186.156 146.558 179.864 150.468 179.786 151.968C179.753 152.645 181.795 154.189 182.794 152.812C244.983 126.564 313.431 111.746 379.271 134.428C389.58 137.983 398.547 144.803 409.477 145.836L409.488 145.847ZM408.057 157.277C406.936 156.144 387.816 147.736 384.819 146.669C342.75 131.585 291.225 130.429 248.112 141.504C232.543 145.503 189.985 158.033 179.376 168.23C177.822 169.718 177.056 169.807 177.567 172.517C239.667 141.348 314.352 128.597 381.49 151.123C391.378 154.445 399.501 160.676 409.488 161.409C410.021 160.921 408.767 157.988 408.068 157.288L408.057 157.277ZM173.128 191.401C183.693 187.546 193.192 181.259 203.446 176.772C266.356 149.235 345.302 144.925 406.914 177.916L409.533 175.294C409.533 170.485 392.232 165.186 387.882 163.62C330.21 142.826 270.651 146.68 213.611 168.063C207.308 170.429 177.722 183.214 174.715 186.891C173.505 188.368 172.773 189.357 173.139 191.412L173.128 191.401ZM153.131 160.299L147.582 162.198L134.265 234.711C136.829 235.299 139.348 236.199 142.045 235.844L153.131 160.31V160.299ZM279.651 172.517H262.45C257.978 172.517 220.269 183.803 213.899 186.124C201.16 190.779 187.288 197.854 175.336 204.175C175.17 205.03 176.357 204.852 177.001 204.741C185.912 203.175 202.369 193.389 211.968 189.746C227.116 183.992 243.007 179.837 258.544 175.272L279.639 172.506L279.651 172.517ZM409.477 231.378C409.866 229.123 408.046 228.212 406.526 227.124C378.305 206.896 316.038 204.686 282.369 206.896C254.893 208.707 199.65 222.77 174.759 234.688C172.895 235.577 165.138 238.743 167.568 241.364C186.511 236.043 204.766 227.924 223.698 222.581C276.011 207.807 336.435 205.608 388.182 223.269C391.688 224.469 407.435 233.144 409.477 231.378ZM165.349 258.037C199.906 246.218 234.929 233.655 271.461 229.301C316.649 223.914 349.896 227.746 392.621 241.042C396.993 242.408 401.82 244.697 406.115 246.452L408.368 244.174C407.846 241.709 397.237 237.965 394.518 236.921C327.302 210.94 248.201 222.492 182.505 248.007C176.579 250.306 168.878 252.528 165.349 258.037ZM406.936 257.26C404.828 255.294 379.459 246.851 374.821 245.53C314.64 228.457 239.8 240.053 182.039 261.98C173.306 265.291 165.393 268.49 162.02 278.031C165.027 278.242 165.027 275.077 167.635 273.1C173.539 268.623 197.176 261.37 205.543 258.837C260.419 242.197 316.948 235.844 373.101 250.584C378.405 251.972 405.549 262.336 408.379 260.248C408.001 259.403 407.48 257.748 406.936 257.249V257.26ZM159.811 292.483C192.149 275.954 230.057 266.002 266.101 260.592C302.145 255.182 336.724 254.327 372.612 265.524C379.781 267.768 400.433 277.321 405.616 277.021C407.369 276.921 408.401 276.821 409.466 275.254C409.444 272.922 392.121 266.935 388.981 265.79C326.403 243.03 241.876 251.839 180.907 277.498C178.932 278.331 156.56 289.039 159.811 292.472V292.483ZM408.368 292.472C411.619 289.028 396.538 283.585 394.241 282.741C328.29 258.415 231.766 266.09 169.022 297.826C165.271 299.725 160.866 302.091 158.69 305.801C188.709 294.371 217.65 283.952 249.477 278.387C299.015 269.734 341.829 271.156 389.991 285.885C396.272 287.806 401.787 291.772 408.368 292.472ZM408.368 308.023C408.834 304.735 406.747 303.113 404.206 301.647C368.307 280.975 296.13 281.508 255.947 287.084C231.322 290.495 181.961 304.057 160.488 315.943C157.703 317.487 154.74 318.475 155.361 322.463C180.741 312.688 206.276 302.058 233.02 296.348C276 287.184 322.02 285.585 365.288 293.938C380.292 296.837 393.819 303.657 408.357 308.023H408.368ZM407.258 323.574C411.408 319.097 387.871 309.589 385.019 308.634C320.733 286.973 225.274 301.225 164.594 330.061C160.477 332.016 154.396 333.782 154.252 339.136C156.859 339.269 157.88 336.737 160.122 335.582C226.051 301.736 320.056 294.138 390.579 315.299L407.258 323.585V323.574ZM122.724 309.222C120.139 310.111 112.271 356.242 108.897 362.118C108.708 364.984 116.033 367.539 117.398 362.774L127.563 311.811L126.553 309.633C125.521 308.945 123.856 308.823 122.713 309.222H122.724ZM408.368 344.679C411.064 341.946 396.016 331.949 393.963 330.783C354.213 308.189 270.984 311.955 227.493 323.03C208.739 327.806 172.296 338.714 156.438 348.545C155.084 349.389 152.942 349.789 153.131 351.899C189.852 338.37 226.606 324.84 265.912 320.386C301.912 316.309 352.482 317.042 385.818 332.283C393.73 335.904 400.256 341.569 408.368 344.69V344.679Z" fill="#858585"/>
<path d="M408.368 308.023C393.83 303.657 380.303 296.837 365.299 293.938C322.02 285.585 276.011 287.184 233.031 296.348C206.276 302.047 180.752 312.688 155.373 322.463C154.751 318.464 157.714 317.475 160.499 315.943C181.973 304.057 231.333 290.494 255.958 287.084C296.141 281.519 368.318 280.986 404.217 301.647C406.759 303.113 408.845 304.735 408.379 308.023H408.368Z" fill="#E6F7FF"/>
<path d="M408.058 157.277C408.757 157.988 410.022 160.909 409.478 161.398C399.491 160.665 391.367 154.433 381.48 151.112C314.341 128.574 239.657 141.337 177.557 172.506C177.046 169.807 177.823 169.707 179.365 168.218C189.974 158.021 232.532 145.492 248.102 141.493C291.226 130.418 342.739 131.573 384.809 146.658C387.805 147.735 406.926 156.133 408.047 157.266L408.058 157.277Z" fill="#E6F7FF"/>
<path d="M408.368 292.472C401.787 291.772 396.272 287.806 389.991 285.885C341.828 271.156 299.004 269.745 249.477 278.387C217.639 283.941 188.697 294.371 158.69 305.801C160.865 302.091 165.282 299.725 169.022 297.826C231.766 266.09 328.29 258.415 394.241 282.741C396.538 283.585 411.619 289.028 408.368 292.472Z" fill="#E6F7FF"/>
<path d="M406.936 257.259C407.48 257.759 407.99 259.414 408.379 260.259C405.549 262.347 378.405 251.994 373.1 250.595C316.948 235.854 260.419 242.197 205.543 258.848C197.176 261.38 173.538 268.634 167.635 273.11C165.038 275.088 165.038 278.242 162.02 278.042C165.393 268.501 173.305 265.313 182.039 261.991C239.8 240.064 314.64 228.479 374.821 245.541C379.459 246.851 404.828 255.304 406.936 257.27V257.259Z" fill="#E6F7FF"/>
<path d="M159.812 292.483C156.56 289.05 178.921 278.342 180.908 277.509C241.876 251.861 326.404 243.041 388.981 265.801C392.122 266.946 409.445 272.933 409.467 275.265C408.401 276.82 407.369 276.932 405.616 277.032C400.434 277.32 379.782 267.768 372.613 265.535C336.735 254.327 303.044 255.06 266.101 260.603C229.158 266.146 192.149 275.965 159.812 292.494V292.483Z" fill="#E6F7FF"/>
<path d="M409.488 145.847C398.569 144.814 389.591 137.983 379.282 134.439C313.453 111.757 244.994 126.575 182.805 152.823C181.806 154.189 179.764 152.645 179.797 151.979C179.875 150.479 186.167 146.558 187.898 145.669C243.773 116.744 342.172 107.125 398.635 137.305C402.697 139.471 408.035 141.382 409.499 145.858L409.488 145.847Z" fill="#E6F7FF"/>
<path d="M173.128 191.401C172.762 189.346 173.494 188.357 174.704 186.88C177.711 183.214 207.296 170.418 213.6 168.052C270.639 146.669 330.187 142.815 387.871 163.609C392.221 165.175 409.522 170.473 409.522 175.283L406.903 177.905C345.302 144.914 266.345 149.224 203.434 176.761C193.181 181.248 183.681 187.535 173.117 191.39L173.128 191.401Z" fill="#E6F7FF"/>
<path d="M173.128 207.539C172.762 205.484 173.494 204.495 174.704 203.018C177.711 199.352 207.296 186.556 213.6 184.19C270.639 162.807 330.187 158.953 387.871 179.747C392.221 181.313 409.522 186.612 409.522 191.421L406.903 194.043C345.302 161.052 266.345 165.362 203.434 192.899C193.181 197.386 183.681 203.673 173.117 207.528L173.128 207.539Z" fill="#E6F7FF"/>
<path d="M173.128 225.539C172.762 223.484 173.494 222.495 174.704 221.018C177.711 217.352 207.296 204.556 213.6 202.19C270.639 180.807 330.187 176.953 387.871 197.747C392.221 199.313 409.522 204.612 409.522 209.421L406.903 212.043C345.302 179.052 266.345 183.362 203.434 210.899C193.181 215.386 183.681 221.673 173.117 225.528L173.128 225.539Z" fill="#E6F7FF"/>
<path d="M408.368 130.307L380.924 119.466C324.539 101.46 268.331 106.658 212.834 125.075C208.584 126.486 185.002 137.361 183.104 135.85C184.103 132.118 189.352 130.185 192.859 128.408C246.847 101.049 335.525 94.4952 391.722 117.555C394.563 118.722 411.564 126.142 408.379 130.307H408.368Z" fill="#E6F7FF"/>
<path d="M407.258 323.574L390.579 315.287C320.056 294.127 226.051 301.724 160.122 335.57C157.881 336.725 156.86 339.258 154.252 339.125C154.396 333.771 160.478 332.005 164.595 330.05C225.274 301.225 320.733 286.962 385.019 308.622C387.871 309.578 411.398 319.086 407.258 323.563V323.574Z" fill="#E6F7FF"/>
<path d="M409.478 231.378C407.425 233.144 391.689 224.469 388.182 223.269C336.435 205.608 276.011 207.807 223.698 222.581C204.766 227.924 186.511 236.044 167.568 241.364C165.138 238.743 172.895 235.577 174.759 234.688C199.662 222.77 254.893 208.707 282.37 206.896C316.039 204.675 378.305 206.896 406.526 227.124C408.046 228.212 409.866 229.123 409.478 231.378Z" fill="#E6F7FF"/>
<path d="M165.35 258.037C168.89 252.528 176.591 250.317 182.506 248.007C248.202 222.492 327.314 210.939 394.519 236.921C397.238 237.965 407.847 241.708 408.368 244.174L406.116 246.451C401.821 244.696 396.994 242.397 392.621 241.042C349.897 227.746 316.65 223.913 271.462 229.301C234.918 233.655 199.906 246.218 165.35 258.037Z" fill="#E6F7FF"/>
<path d="M408.368 114.745C407.148 115.878 394.253 108.713 391.512 107.747C339.121 89.3189 281.704 90.4074 228.593 105.292L185.313 119.732C189.73 112.79 202.403 108.636 210.271 105.836C263.782 86.8085 342.939 80.9213 395.629 104.726C397.049 105.37 410.699 112.557 408.368 114.734V114.745Z" fill="#E6F7FF"/>
<path d="M408.368 344.679C400.256 341.557 393.73 335.892 385.818 332.271C352.482 317.031 301.901 316.298 265.912 320.375C226.606 324.829 189.852 338.358 153.131 351.888C152.942 349.777 155.084 349.377 156.438 348.533C172.307 338.703 208.739 327.795 227.494 323.018C270.984 311.944 354.213 308.178 393.963 330.772C396.016 331.938 411.064 341.935 408.368 344.668V344.679Z" fill="#E6F7FF"/>
<path d="M409.489 84.7534C407.58 86.1974 385.086 76.4113 380.869 75.0895C316.05 54.8064 251.331 63.5039 189.752 89.763C189.752 85.5198 196.81 82.7095 200.106 81.2432C260.752 54.2954 335.947 51.1186 397.559 76.1669C402.486 78.1664 407.735 79.0439 409.489 84.7645V84.7534Z" fill="#E6F7FF"/>
<path d="M408.102 96.1167C411.587 102.415 403.741 99.7823 399.846 98.2938C393.875 96.0167 389.559 92.3511 382.59 90.0184C333.728 73.712 279.052 76.3112 229.703 89.7407C224.099 91.2625 189.309 104.992 187.544 103.626C186.923 100.804 188.277 101.682 189.619 100.749C195.712 96.5277 215.165 89.9296 223.033 87.508C283.325 68.9911 350.763 67.5471 408.102 96.0945V96.1167Z" fill="#E6F7FF"/>
<path d="M385.064 62.56C385.319 64.6149 382.745 63.5263 381.701 63.1487C346.101 50.1413 308.104 47.0089 270.374 52.7072C243.13 56.8283 217.684 67.7474 191.994 76.9891C191.35 74.1455 192.76 75.0453 194.069 74.1122C196.91 72.1017 200.284 70.4799 203.435 69.0248C250.221 47.331 300.98 41.1328 352.027 49.5193C364.49 51.5631 374.144 56.6505 385.053 62.56H385.064Z" fill="#E6F7FF"/>
<path d="M153.131 160.298L142.045 235.832C139.348 236.199 136.829 235.299 134.266 234.699L147.582 162.187L153.131 160.287V160.298Z" fill="#E6F7FF"/>
<path d="M122.725 309.222C123.868 308.834 125.521 308.956 126.565 309.633L127.574 311.811L117.409 362.774C116.044 367.539 108.72 364.984 108.909 362.118C112.282 356.242 120.15 310.111 122.736 309.222H122.725Z" fill="#E6F7FF"/>
<path d="M812.308 399.107C810.899 400.518 781.48 390.821 777.063 389.41C732.153 375.048 687.741 355.431 640.689 348.189C577.302 338.436 504.304 351.654 460.503 401.862C459.293 403.251 452.058 415.292 450.549 413.548C450.149 409.56 451.57 405.894 451.703 401.94C455.143 300.547 449.616 198.554 452.801 97.5718C453.079 88.7187 451.57 76.8333 452.701 68.5912C453.168 65.1922 455.609 62.6484 457.396 59.9603C480.622 25.0037 535.609 2.67677 576.447 0.28857C633.165 -3.02159 685.045 22.2489 735.26 44.698C738.323 47.8194 742.529 75.9224 744.06 82.5427C767.009 182.27 785.142 283.074 808.213 382.668C809.489 388.177 812.796 393.287 812.319 399.096L812.308 399.107ZM757.932 234.71C758.664 214.505 754.358 194.277 749.631 174.716C743.372 148.824 734.161 113.789 725.439 88.9631C724.928 87.4969 724.151 83.8868 722.443 83.6535C723.996 117.422 736.691 148.801 744.082 181.381C747.744 197.521 749.276 217.548 755.224 232.489C755.934 234.277 755.113 235.199 757.943 234.71H757.932ZM732.408 280.253C732.707 277.587 730 276.132 727.98 275.254C716.284 270.189 689.417 264.879 675.856 261.891C631.157 252.05 595.667 249.173 550.191 257.259C529.672 260.903 505.469 264.491 488.279 276.376C489.001 277.565 491.775 276.898 492.996 276.654C502.306 274.776 512.649 269.767 522.636 267.445C574.605 255.36 623.788 254.416 676.045 266.146C694.855 270.367 713.265 277.653 732.408 280.253ZM733.518 294.693C733.906 291.949 731.32 291.305 729.401 290.494C719.247 286.195 703.444 282.374 692.469 279.697C630.835 264.635 567.492 261.847 506.29 281.086C500.653 282.863 491.009 285.362 488.257 290.805C494.494 291.249 500.875 286.717 506.889 285.018C572.219 266.657 636.139 269.856 701.369 286.329C711.878 288.983 722.087 295.604 733.506 294.693H733.518ZM736.847 306.934C702.911 295.648 665.336 286.295 629.625 282.619C590.984 278.642 538.994 284.385 502.106 296.881C497.213 298.536 489.977 300.602 488.268 305.79C517.31 295.837 547.96 289.106 578.722 286.929C609.539 284.74 641.255 288.361 671.606 293.904C691.492 297.537 714.275 306.301 733.063 309.033C735.36 309.367 737.524 309.989 736.847 306.923V306.934ZM739.066 321.385C736.159 320.497 734.095 318.708 731.098 317.686C661.718 294.226 574.161 290.028 503.804 310.799C499.277 312.132 491.686 314.187 489.378 318.575C490.088 319.952 492.663 318.953 493.839 318.597C561.643 298.392 616.486 296.97 686.066 310.555C702.811 313.821 720.534 320.097 737.468 323.551L739.066 321.385ZM767.93 309.133C768.008 327.506 774.256 344.812 777.052 362.773C778.073 365.262 781.424 366.072 783.888 365.706L785.486 363.273L774.389 311.01L772.78 309.289L767.93 309.133Z" fill="#858585"/>
<path fill-rule="evenodd" clip-rule="evenodd" d="M610.216 87H610.226C610.1 83.0658 608.481 79.3192 605.689 76.527C602.779 73.6168 598.832 71.9819 594.716 71.9819C590.601 71.9819 586.654 73.6168 583.743 76.527C580.951 79.3192 579.333 83.0658 579.206 87H579.216V106H610.216V87ZM623.216 106V87.5V87H623.212C623.083 79.6223 620.096 72.5743 614.869 67.3475C609.524 62.0027 602.275 59 594.716 59C587.158 59 579.909 62.0027 574.564 67.3475C569.337 72.5743 566.35 79.6223 566.221 87H566.216V87.5V106H560.216C555.798 106 552.216 109.582 552.216 114V172C552.216 176.418 555.798 180 560.216 180H629.216C633.635 180 637.216 176.418 637.216 172V114C637.216 109.582 633.635 106 629.216 106H623.216ZM599.091 145.139C603.273 143.417 606.216 139.302 606.216 134.5C606.216 128.149 601.068 123 594.716 123C588.365 123 583.216 128.149 583.216 134.5C583.216 139.302 586.16 143.417 590.341 145.139L586.289 162.365H603.143L599.091 145.139Z" fill="#E6F7FF"/>
<circle cx="593.716" cy="127.5" r="96.5" stroke="#E6F7FF" stroke-width="10"/>
<circle cx="497.716" cy="127.5" r="15.5" fill="#E6F7FF" stroke="#858585" stroke-width="8"/>
<circle cx="690.716" cy="127.5" r="15.5" fill="#E6F7FF" stroke="#858585" stroke-width="8"/>
<circle cx="594.216" cy="31" r="15.5" transform="rotate(90 594.216 31)" fill="#E6F7FF" stroke="#858585" stroke-width="8"/>
<circle cx="594.216" cy="224" r="15.5" transform="rotate(90 594.216 224)" fill="#E6F7FF" stroke="#858585" stroke-width="8"/>
<circle cx="662.452" cy="59.2642" r="15.5" transform="rotate(135 662.452 59.2642)" fill="#E6F7FF" stroke="#858585" stroke-width="8"/>
<circle cx="525.981" cy="195.736" r="15.5" transform="rotate(135 525.981 195.736)" fill="#E6F7FF" stroke="#858585" stroke-width="8"/>
<circle cx="662.452" cy="195.736" r="15.5" transform="rotate(-135 662.452 195.736)" fill="#E6F7FF" stroke="#858585" stroke-width="8"/>
<circle cx="525.98" cy="59.2643" r="15.5" transform="rotate(-135 525.98 59.2643)" fill="#E6F7FF" stroke="#858585" stroke-width="8"/>
<path d="M732.408 280.253C713.265 277.654 694.855 270.367 676.045 266.146C623.788 254.416 574.605 255.36 522.636 267.445C512.649 269.767 502.306 274.777 492.996 276.654C491.775 276.898 489.001 277.565 488.279 276.376C505.458 264.491 529.661 260.903 550.191 257.259C595.667 249.173 631.168 252.05 675.856 261.891C689.417 264.88 716.284 270.2 727.98 275.254C730 276.132 732.707 277.587 732.408 280.253Z" fill="#E6F7FF"/>
<path d="M733.517 294.693C722.098 295.604 711.889 288.984 701.38 286.329C636.15 269.856 572.23 266.646 506.9 285.018C500.875 286.707 494.505 291.25 488.268 290.805C491.02 285.363 500.653 282.852 506.301 281.086C567.514 261.847 630.846 264.635 692.48 279.698C703.444 282.375 719.257 286.196 729.411 290.494C731.331 291.305 733.917 291.95 733.529 294.693H733.517Z" fill="#E6F7FF"/>
<path d="M736.847 306.934C737.524 310 735.371 309.378 733.062 309.045C714.264 306.301 691.492 297.548 671.606 293.916C641.255 288.373 609.539 284.752 578.722 286.94C547.96 289.117 517.31 295.848 488.268 305.801C489.977 300.603 497.212 298.548 502.106 296.893C538.994 284.396 590.984 278.664 629.625 282.63C665.347 286.307 702.911 295.66 736.847 306.945V306.934Z" fill="#E6F7FF"/>
<path d="M739.066 321.385L737.468 323.551C720.534 320.108 702.811 313.832 686.066 310.555C616.486 296.97 561.643 298.392 493.839 318.597C492.663 318.953 490.088 319.952 489.378 318.575C491.686 314.187 499.277 312.132 503.804 310.8C574.15 290.028 661.707 294.226 731.098 317.686C734.095 318.697 736.17 320.497 739.066 321.385Z" fill="#E6F7FF"/>
<path d="M739.066 338.988L737.468 341.154C720.534 337.711 702.811 331.435 686.066 328.158C616.486 314.573 561.643 315.995 493.839 336.2C492.663 336.556 490.088 337.555 489.378 336.178C491.686 331.79 499.277 329.735 503.804 328.403C574.15 307.631 661.707 311.83 731.098 335.289C734.095 336.3 736.17 338.1 739.066 338.988Z" fill="#E6F7FF"/>
<path d="M757.932 234.71C755.113 235.21 755.934 234.288 755.213 232.489C749.276 217.538 747.744 197.521 744.071 181.381C736.681 148.802 723.985 117.411 722.432 83.6538C724.141 83.8982 724.917 87.5083 725.428 88.9634C734.15 113.778 743.372 148.824 749.62 174.717C754.347 194.266 758.653 214.494 757.921 234.71H757.932Z" fill="#E6F7FF"/>
<path d="M767.93 309.134L772.78 309.289L774.389 311.011L785.486 363.274L783.888 365.706C781.424 366.062 778.073 365.251 777.052 362.774C774.267 344.823 768.019 327.506 767.93 309.134Z" fill="#E6F7FF"/>
<path d="M426.601 420.046C410.266 406.439 392.71 394.176 373.334 385.312C356.244 377.525 338.067 372.493 319.468 369.927C324.528 369.694 329.611 369.916 334.671 370.372C370.249 373.993 403.552 392.921 426.601 420.046Z" fill="#858585"/>
<path d="M421.419 434.242C390.779 414.603 356.766 400.641 321.355 392.554C285.932 384.434 249.3 382.146 213.057 384.323C231.134 381.957 249.467 381.091 267.733 381.99C322.409 384.456 377.274 401.34 421.419 434.242Z" fill="#858585"/>
<path d="M404.096 436.775C324.007 404.895 234.984 397.941 150.59 414.781C155.806 413.415 161.055 412.148 166.337 411.049C171.619 409.927 176.924 408.916 182.239 408.005C256.768 395.742 335.415 404.906 404.096 436.775Z" fill="#858585"/>
<path d="M393.598 446.505C371.991 436.03 348.254 431.587 324.317 432.12C347.888 426.844 374.233 431.876 393.598 446.505Z" fill="#858585"/>
<path d="M461.935 420.046C485.827 392.721 519.995 373.937 556.261 370.36C561.421 369.905 566.604 369.683 571.764 369.927C554.053 372.36 536.641 376.781 520.184 383.756C498.944 392.598 479.735 405.561 461.935 420.046Z" fill="#858585"/>
<path d="M467.25 434.242C512.826 401.174 569.023 384.445 624.942 381.99C643.63 381.102 662.384 381.957 680.883 384.334C648.424 382.446 615.676 383.923 583.671 389.777C542.534 397.208 502.761 412.026 467.25 434.253V434.242Z" fill="#858585"/>
<path d="M485.005 436.775C555.662 404.828 636.083 395.764 712.466 408.005C717.915 408.927 723.352 409.927 728.768 411.049C734.183 412.148 739.565 413.415 744.914 414.781C658.411 397.975 567.28 404.839 485.005 436.775Z" fill="#858585"/>
<path d="M495.77 446.505C515.789 431.821 542.667 426.855 566.804 432.12C542.312 431.598 517.987 435.986 495.77 446.505Z" fill="#858585"/>
<path d="M819.255 312.444L845.644 421.257L854.467 426.211C850.627 405.717 846.31 385.189 841.605 364.84C835.646 339.08 828.521 313.321 822.174 287.606C820.01 278.842 817.912 272.277 815.859 264.58C815.438 263.024 815.083 253.705 814.295 252.927L813.141 251.083C812.952 245.429 809.745 239.165 808.757 234.133C805.128 215.849 800.423 193.933 796.583 176.671C796.339 175.583 795.651 173.85 795.451 171.273L779.216 101.449L778.584 99.8046L777.885 97.4053L777.23 95.6725L776.653 94.0729L775.998 92.74L775.454 91.3182C772.203 80.4435 776.098 69.1912 762.193 64.0815L761.594 67.936L776.808 131.707" fill="#858585"/>
<path d="M751.495 54.0732L744.915 55.2729L829.265 418.258L835.857 417.058L751.495 54.0732Z" fill="#858585"/>
</g>
<defs>
<clipPath id="clip0_94_2353">
<rect width="890" height="503" fill="white"/>
</clipPath>
</defs>
</svg>
